<svg width="16" height="14" viewBox="0 0 16 14" fill="none" xmlns="http://www.w3.org/2000/svg">
<path d="M14.5471 11.3269H9.29651" stroke="#7D7A89" stroke-width="1.5" stroke-linecap="round" stroke-linejoin="round"/>
<path d="M8.95044 3.25072H14.201" stroke="#7D7A89" stroke-width="1.5" stroke-linecap="round" stroke-linejoin="round"/>
<path fill-rule="evenodd" clip-rule="evenodd" d="M5.27195 3.20521C5.27195 2.1255 4.39015 1.25 3.30266 1.25C2.21517 1.25 1.33337 2.1255 1.33337 3.20521C1.33337 4.28492 2.21517 5.16042 3.30266 5.16042C4.39015 5.16042 5.27195 4.28492 5.27195 3.20521Z" stroke="#7D7A89" stroke-width="1.5" stroke-linecap="round" stroke-linejoin="round"/>
<path fill-rule="evenodd" clip-rule="evenodd" d="M5.29648 11.2951C5.29648 10.2153 4.41536 9.33984 3.32788 9.33984C2.23971 9.33984 1.35791 10.2153 1.35791 11.2951C1.35791 12.3748 2.23971 13.2503 3.32788 13.2503C4.41536 13.2503 5.29648 12.3748 5.29648 11.2951Z" stroke="#7D7A89" stroke-width="1.5" stroke-linecap="round" stroke-linejoin="round"/>
</svg>
