<svg width="20" height="20" viewBox="0 0 20 20" fill="none" xmlns="http://www.w3.org/2000/svg">
<path fill-rule="evenodd" clip-rule="evenodd" d="M15.8928 15.8909C13.346 18.438 9.57477 18.9883 6.48864 17.561C6.03305 17.3776 5.65953 17.2294 5.30444 17.2294C4.31537 17.2352 3.08426 18.1942 2.44443 17.5552C1.80459 16.9153 2.76434 15.6832 2.76434 14.6881C2.76434 14.333 2.62197 13.9662 2.43856 13.5097C1.01065 10.424 1.56172 6.65159 4.10851 4.10535C7.35962 0.853042 12.6416 0.853042 15.8928 4.10452C19.1497 7.36185 19.1439 12.6394 15.8928 15.8909Z" stroke="#7E7BB3" stroke-width="1.5" stroke-linecap="round" stroke-linejoin="round"/>
<path d="M13.2828 10.3444H13.2903" stroke="#7E7BB3" stroke-width="2" stroke-linecap="round" stroke-linejoin="round"/>
<path d="M9.94197 10.3444H9.94947" stroke="#7E7BB3" stroke-width="2" stroke-linecap="round" stroke-linejoin="round"/>
<path d="M6.60115 10.3444H6.60865" stroke="#7E7BB3" stroke-width="2" stroke-linecap="round" stroke-linejoin="round"/>
</svg>
