<svg width="24" height="24" viewBox="0 0 24 24" fill="none" xmlns="http://www.w3.org/2000/svg">
<path d="M20.7233 16.4935C20.1654 15.536 19.5004 13.7189 19.5004 10.5V9.83478C19.5004 5.68305 16.1614 2.28058 12.0572 2.25019C12.0379 2.25009 12.019 2.25 11.9999 2.25C10.0108 2.25013 8.10329 3.04036 6.69688 4.44688C5.29048 5.85339 4.50038 7.76097 4.5004 9.75V10.5C4.5004 13.7185 3.83509 15.5357 3.27698 16.4931C3.14377 16.721 3.07305 16.98 3.07197 17.244C3.0709 17.5079 3.1395 17.7675 3.27085 17.9965C3.40221 18.2254 3.59166 18.4157 3.82007 18.548C4.04848 18.6803 4.30776 18.75 4.57172 18.75H19.4284C19.6923 18.75 19.9515 18.6803 20.1799 18.548C20.4083 18.4158 20.5978 18.2256 20.7291 17.9967C20.8605 17.7677 20.9291 17.5082 20.9281 17.2443C20.9271 16.9804 20.8564 16.7214 20.7233 16.4935H20.7233Z" fill="#100D2F"/>
<path d="M14.9933 20.25H8.99335C8.79443 20.25 8.60367 20.329 8.46302 20.4697C8.32236 20.6103 8.24335 20.8011 8.24335 21C8.24335 21.1989 8.32236 21.3897 8.46302 21.5303C8.60367 21.671 8.79443 21.75 8.99335 21.75H14.9933C15.1923 21.75 15.383 21.671 15.5237 21.5303C15.6643 21.3897 15.7433 21.1989 15.7433 21C15.7433 20.8011 15.6643 20.6103 15.5237 20.4697C15.383 20.329 15.1923 20.25 14.9933 20.25Z" fill="#100D2F"/>
<circle cx="18" cy="4" r="3.25" fill="#1AC491" stroke="#F0F2F6" stroke-width="1.5"/>
</svg>
